<?xml version="1.0" standalone="no"?>
<!DOCTYPE svg PUBLIC "-//W3C//DTD SVG 20010904//EN"
 "http://www.w3.org/TR/2001/REC-SVG-20010904/DTD/svg10.dtd">
<svg version="1.0" xmlns="http://www.w3.org/2000/svg"
 width="250px" height="250px" viewBox="0 0 200.000000 200.000000"
 preserveAspectRatio="xMidYMid meet">
<metadata>
Created by potrace 1.10, written by Peter Selinger 2001-2011
</metadata>
<g transform="translate(0.000000,235.000000) scale(0.050000,-0.050000)"
fill="#2a8bf2" stroke="none">
<path d="M1780 3162 c-583 -190 -700 -945 -197 -1281 642 -428 1412 332 994
983 -156 244 -532 385 -797 298z m228 -156 c114 -5 114 -5 99 -62 -8 -31 -37
-51 -94 -66 -46 -13 -162 -59 -258 -104 -166 -77 -177 -79 -202 -45 -27 38 -1
138 31 119 8 -5 24 9 36 31 11 22 28 39 36 36 8 -2 37 10 64 26 102 61 170 91
180 80 6 -6 54 -13 108 -15z m388 -150 c40 -40 31 -70 -140 -483 -176 -426
-213 -478 -293 -406 -40 36 -118 265 -97 286 30 30 70 -18 103 -121 19 -62 41
-112 48 -112 16 1 327 759 319 778 -7 17 -776 -298 -776 -317 0 -7 56 -31 125
-53 l125 -41 160 137 c88 75 168 133 179 130 51 -17 18 -62 -148 -200 l-181
-151 -149 50 c-313 105 -281 157 224 364 404 165 459 181 501 139z m116 -384
c-1 -60 5 -104 13 -99 8 5 15 -5 15 -22 0 -18 -14 -38 -31 -44 -20 -8 -26 -25
-17 -52 7 -24 4 -35 -7 -28 -11 6 -36 -19 -57 -58 -20 -38 -45 -69 -54 -69 -9
0 -11 -9 -4 -20 7 -11 -2 -20 -20 -20 -20 0 -27 -9 -18 -25 11 -20 8 -20 -13
0 -20 19 -33 19 -58 0 -17 -13 -13 -3 9 24 22 26 28 41 14 33 -34 -20 -21 50
32 168 22 50 59 135 81 190 39 97 41 99 62 50 16 -38 20 -41 16 -10 -3 35 17
90 33 90 3 0 5 -49 4 -108z m-845 -230 c103 -68 187 -247 100 -214 -27 11 -29
8 -7 -18 38 -45 -14 -39 -98 12 -88 53 -134 98 -100 98 13 0 3 18 -22 40 -90
78 23 151 127 82z"/>
<path d="M3204 1569 c-54 -38 -119 -160 -140 -264 -12 -56 -27 -77 -60 -81
-58 -9 -61 -84 -4 -84 27 0 40 -13 40 -40 0 -73 -123 -54 -160 25 -82 176
-340 71 -340 -138 0 -54 -9 -69 -50 -79 -120 -30 -130 8 -70 281 52 234 51
282 -9 342 -93 93 -239 41 -334 -119 l-60 -102 12 76 c35 206 -136 255 -288
82 -101 -115 -53 -176 55 -69 124 124 136 85 83 -269 -46 -308 -44 -350 20
-350 45 0 81 55 81 125 0 169 134 483 227 533 118 64 135 0 75 -290 -21 -100
-33 -206 -27 -235 22 -116 175 -170 267 -95 46 37 48 37 95 0 93 -73 214 -36
263 81 15 36 40 61 61 61 20 0 49 5 65 11 21 8 34 -6 44 -49 27 -126 163 -177
281 -105 50 31 64 33 85 10 95 -102 384 -8 384 125 0 55 -24 62 -61 17 -59
-71 -219 -117 -248 -71 -6 10 22 35 64 55 148 73 162 247 21 263 -114 13 -279
-170 -228 -253 15 -24 -63 -83 -110 -83 -51 0 -78 47 -91 157 l-12 101 107 6
c126 7 179 76 58 76 l-62 0 53 70 c127 165 59 381 -87 279z m56 -134 c0 -69
-80 -222 -95 -180 -12 35 52 245 76 245 10 0 19 -29 19 -65z m-490 -407 c32
-85 32 -94 2 -125 -71 -70 -147 74 -92 176 32 61 51 51 90 -51z m810 63 c0
-45 -108 -123 -116 -84 -10 49 34 113 77 113 21 0 39 -13 39 -29z"/>
<path d="M556 1558 c-229 -33 -366 -198 -247 -297 56 -47 102 -17 95 61 -7 81
16 107 112 127 l66 15 -13 -107 c-17 -146 -20 -153 -73 -160 -63 -9 -63 -85 0
-94 41 -5 45 -14 33 -70 -31 -149 -139 -203 -229 -113 -56 56 -100 51 -100
-10 0 -115 239 -174 350 -87 61 49 110 149 110 226 0 48 6 51 98 51 104 0 156
35 134 92 -10 27 -33 31 -115 23 l-102 -10 13 91 c6 49 12 108 12 130 0 37 10
39 169 29 176 -11 225 6 200 70 -19 49 -288 66 -513 33z"/>
<path d="M979 1166 c-116 -97 -155 -270 -79 -346 51 -51 124 -51 170 0 l36 40
28 -40 c36 -51 87 -51 151 0 l51 39 28 -42 c41 -63 118 -36 183 63 49 73 61
80 141 80 92 0 145 37 126 88 -9 21 -28 25 -79 13 l-68 -15 1 81 c2 64 -6 83
-34 89 -57 12 -114 -53 -114 -130 0 -37 -16 -97 -35 -132 l-35 -64 -10 160
c-10 155 -12 160 -60 160 -48 0 -50 -6 -55 -130 -6 -128 -45 -200 -110 -200
-20 0 -10 156 17 255 11 38 5 45 -40 45 -28 0 -52 9 -52 20 0 40 -98 19 -161
-34z m132 -101 c-21 -122 -53 -185 -93 -185 -59 0 -51 122 14 198 70 84 95 79
79 -13z"/>
</g>
</svg>
